<svg xmlns="http://www.w3.org/2000/svg" viewBox="0 0 512 512">
  <defs>
    <linearGradient id="grad" x1="0%" y1="0%" x2="100%" y2="100%">
      <stop offset="0%" style="stop-color:#f43f5e;stop-opacity:1" />
      <stop offset="50%" style="stop-color:#ec4899;stop-opacity:1" />
      <stop offset="100%" style="stop-color:#a855f7;stop-opacity:1" />
    </linearGradient>
  </defs>
  <rect width="512" height="512" rx="120" fill="url(#grad)"/>
  <circle cx="256" cy="256" r="140" fill="#ffffff" fill-opacity="0.2"/>
  <path d="M220 180 h 40 v 150 h -40 z M180 230 h 150 v 40 h -150 z" fill="#ffffff"/>
  <path d="M256 120 C 180 120, 120 180, 120 256 C 120 330, 180 390, 256 390 C 330 390, 390 330, 390 256 C 390 180, 330 120, 256 120 Z M256 350 C 204 350, 160 306, 160 256 C 160 204, 204 160, 256 160 C 306 160, 350 204, 350 256 C 350 306, 306 350, 256 350 Z" fill="#ffffff"/>
</svg>
